<svg viewBox="0 0 512 512" xmlns="http://www.w3.org/2000/svg">
  <!-- Outer circle background with padding for maskable - Neon Teal -->
  <circle cx="256" cy="256" r="200" fill="#00F5D4" stroke="#00F5D4" stroke-width="8"/>
  
  <!-- Electric Purple F section -->
  <path d="M 106 106 Q 106 106 176 106 Q 256 106 256 146 Q 256 256 176 256 L 106 256 Q 106 256 106 406 Q 406 406 406 256 Q 406 106 256 106 L 176 106 Z" fill="#7B2FF7"/>
  
  <!-- White F letter -->
  <g fill="white">
    <rect x="130" y="136" width="24" height="140"/>
    <rect x="130" y="136" width="90" height="20"/>
    <rect x="130" y="186" width="70" height="16"/>
  </g>
  
  <!-- White C letter -->
  <g fill="white" transform="translate(226, 106)">
    <path d="M 75 50 Q 25 50 25 100 L 25 150 Q 25 200 75 200 L 125 200 L 125 175 L 75 175 Q 50 175 50 150 L 50 100 Q 50 75 75 75 L 125 75 L 125 50 Z"/>
  </g>
</svg>
